<?xml version="1.0" encoding="UTF-8"?>
<svg width="24px" height="24px" viewBox="0 0 24 24" version="1.1" xmlns="http://www.w3.org/2000/svg" xmlns:xlink="http://www.w3.org/1999/xlink">
    <title>Icon Apple</title>
    <g id="Icon-Apple" stroke="none" stroke-width="1" fill="none" fill-rule="evenodd">
        <g id="Group">
            <g opacity="0.2" id="Rectangle">
                <rect x="0" y="0" width="24" height="24"></rect>
            </g>
            <g id="icon-(outlines)" transform="translate(4.000000, 3.000000)" fill="#001D2F">
                <path d="M10.8808153,4.41184486 L11.1487668,4.42532052 C11.7495574,4.44933008 13.4365571,4.65474642 14.5178547,6.15530578 C14.4309518,6.2056681 12.505342,7.26843172 12.5275963,9.47356214 C12.5504227,11.848317 14.5129299,12.7981705 14.9248939,12.9711655 L14.9894995,12.9970844 L14.9894995,12.9970844 L15,13.0009469 C14.9787118,13.0627636 14.6131128,14.2530297 13.7252514,15.4826287 C12.9572061,16.5441368 12.160009,17.6025609 10.9062262,17.6239261 C9.6704273,17.6459249 9.27436743,16.9326644 7.86411798,16.9326644 C6.45500836,16.9326644 6.01509407,17.6025603 4.84671746,17.6459249 C3.6354881,17.689007 2.71178898,16.4964152 1.93898177,15.4392251 C0.355581626,13.2742341 -0.853056081,9.32190956 0.770616676,6.65323006 C1.57632219,5.3282173 3.01784194,4.48884907 4.58275047,4.4682511 C5.77124093,4.44608448 6.89558812,5.22565954 7.62173856,5.22565954 C8.34986699,5.22565954 9.71461561,4.2890066 11.1487668,4.42532052 Z M10.5697729,0 C10.6816384,1.1199284 10.2733471,2.24309021 9.66485498,3.05248574 C9.05605379,3.86032368 8.05799535,4.48769166 7.08096278,4.40431911 C6.94713645,3.30783801 7.44067519,2.16448261 8.00461219,1.44847736 C8.63198162,0.641608127 9.69393616,0.038185784 10.5697729,0 Z" id="Combined-Shape"></path>
            </g>
        </g>
    </g>
</svg>